<?xml version="1.0" standalone="no"?>
<!DOCTYPE svg PUBLIC "-//W3C//DTD SVG 20010904//EN"
 "http://www.w3.org/TR/2001/REC-SVG-20010904/DTD/svg10.dtd">
<svg version="1.0" xmlns="http://www.w3.org/2000/svg"
 viewBox="0 0 512.000000 512.000000"
 preserveAspectRatio="xMidYMid meet">

<g transform="translate(0.000000,512.000000) scale(0.100000,-0.100000)"
fill="#000000" stroke="none">
<path d="M588 5099 c-23 -12 -46 -35 -58 -59 -20 -39 -20 -54 -20 -2480 0
-2427 0 -2441 20 -2480 13 -26 34 -47 60 -60 39 -20 55 -20 1970 -20 1915 0
1931 0 1970 20 26 13 47 34 60 60 20 39 20 55 20 1980 0 1757 -2 1944 -16
1973 -22 44 -1020 1044 -1066 1068 -36 19 -73 19 -1470 19 -1407 -1 -1434 -1
-1470 -21z m2722 -719 c0 -422 1 -442 20 -480 13 -26 34 -47 60 -60 38 -19 58
-20 480 -20 l440 0 0 -1760 0 -1760 -1750 0 -1750 0 0 2260 0 2260 1250 0
1250 0 0 -440z m545 -20 l240 -240 -243 0 -242 0 0 240 c0 132 1 240 3 240 1
0 110 -108 242 -240z"/>
<path d="M1812 3799 c-23 -12 -51 -33 -61 -48 -28 -39 -601 -1548 -601 -1583
0 -46 34 -101 78 -126 49 -27 91 -28 143 -1 46 23 65 59 134 247 l38 102 350
-2 350 -3 54 -145 c59 -156 84 -193 144 -212 97 -29 189 40 189 141 0 46 -557
1535 -592 1582 -28 37 -94 69 -144 69 -21 0 -58 -10 -82 -21z m202 -807 l114
-302 -235 0 c-220 0 -235 1 -228 18 4 9 43 112 87 227 131 344 140 367 144
363 2 -2 55 -140 118 -306z"/>
<path d="M2938 3649 c-53 -27 -78 -81 -78 -164 l0 -65 -65 0 c-85 0 -137 -25
-165 -80 -11 -21 -20 -53 -20 -70 0 -17 9 -49 20 -70 28 -55 80 -80 165 -80
l65 0 0 -65 c0 -85 25 -137 80 -165 21 -11 53 -20 70 -20 17 0 49 9 70 20 55
28 80 80 80 165 l0 65 65 0 c85 0 137 25 165 80 11 21 20 53 20 70 0 17 -9 49
-20 70 -28 55 -80 80 -165 80 l-65 0 0 65 c0 85 -25 137 -80 165 -49 25 -94
25 -142 -1z"/>
<path d="M2588 1499 c-43 -22 -78 -81 -78 -129 0 -50 35 -107 80 -130 38 -19
58 -20 670 -20 612 0 632 1 670 20 45 23 80 80 80 130 0 50 -35 107 -80 130
-38 19 -57 20 -672 20 -610 -1 -634 -2 -670 -21z"/>
<path d="M2588 899 c-43 -22 -78 -81 -78 -129 0 -50 35 -107 80 -130 38 -19
58 -20 670 -20 612 0 632 1 670 20 45 23 80 80 80 130 0 50 -35 107 -80 130
-38 19 -57 20 -672 20 -610 -1 -634 -2 -670 -21z"/>
</g>
</svg>
