<?xml version="1.0" encoding="utf-8"?>
<!-- Generator: Adobe Illustrator 24.1.1, SVG Export Plug-In . SVG Version: 6.00 Build 0)  -->
<svg version="1.1" id="Layer_1" xmlns="http://www.w3.org/2000/svg" xmlns:xlink="http://www.w3.org/1999/xlink" x="0px" y="0px"
	 viewBox="0 0 512 512" style="enable-background:new 0 0 512 512;" xml:space="preserve">
<g>
	<path d="M409.6,51.2H320V38.4C320,17.2,302.8,0,281.6,0h-51.2C209.2,0,192,17.2,192,38.4v12.8h-89.6C81.2,51.2,64,68.4,64,89.6
		v25.6c0,16.7,10.7,30.9,25.6,36.2v322.2c0,21.2,17.2,38.4,38.4,38.4h256c21.2,0,38.4-17.2,38.4-38.4V151.4
		c14.9-5.3,25.6-19.5,25.6-36.2V89.6C448,68.4,430.8,51.2,409.6,51.2z M217.6,38.4c0-7.1,5.7-12.8,12.8-12.8h51.2
		c7.1,0,12.8,5.7,12.8,12.8v12.8h-76.8V38.4z M384,486.4H128c-7.1,0-12.8-5.7-12.8-12.8v-320h281.6v320
		C396.8,480.7,391.1,486.4,384,486.4z M422.4,115.2c0,7.1-5.7,12.8-12.8,12.8H102.4c-7.1,0-12.8-5.7-12.8-12.8V89.6
		c0-7.1,5.7-12.8,12.8-12.8h307.2c7.1,0,12.8,5.7,12.8,12.8V115.2z"/>
	<path d="M332.8,179.2c-7.1,0-12.8,5.7-12.8,12.8v256c0,7.1,5.7,12.8,12.8,12.8s12.8-5.7,12.8-12.8V192
		C345.6,184.9,339.9,179.2,332.8,179.2z"/>
	<path d="M256,179.2c-7.1,0-12.8,5.7-12.8,12.8v256c0,7.1,5.7,12.8,12.8,12.8s12.8-5.7,12.8-12.8V192
		C268.8,184.9,263.1,179.2,256,179.2z"/>
	<path d="M179.2,179.2c-7.1,0-12.8,5.7-12.8,12.8v256c0,7.1,5.7,12.8,12.8,12.8S192,455.1,192,448V192
		C192,184.9,186.3,179.2,179.2,179.2z"/>
</g>
</svg>
