<?xml version="1.0" encoding="utf-8"?>
<!-- Generator: Adobe Illustrator 24.1.1, SVG Export Plug-In . SVG Version: 6.00 Build 0)  -->
<svg version="1.1" id="Layer_1" xmlns="http://www.w3.org/2000/svg" xmlns:xlink="http://www.w3.org/1999/xlink" x="0px" y="0px"
	 viewBox="0 0 512 512" style="enable-background:new 0 0 512 512;" xml:space="preserve">
<g>
	<path d="M332.7,256c0,40.7-34.4,73.6-76.9,73.6S179,296.6,179,256c0-40.7,34.4-73.6,76.9-73.6S332.7,215.3,332.7,256z M256,102.6
		c-44,0.2-89.5,10.9-132.7,31.4c-32,15.8-63.2,38.2-90.3,65.8C19.7,213.9,2.7,234.2,0,256c0.3,18.8,20.5,42.1,33,56.2
		c25.4,26.5,55.8,48.2,90.3,65.8c40.2,19.5,84.7,30.8,132.7,31.4c44-0.2,89.6-11,132.6-31.4c32-15.8,63.3-38.2,90.3-65.8
		c13.3-14.1,30.3-34.5,33-56.2c-0.3-18.8-20.5-42.1-33-56.2c-25.4-26.5-55.8-48.2-90.3-65.8C348.4,114.5,303.8,103.3,256,102.6z
		 M256,140.7c66.6,0,120.6,51.6,120.6,115.3s-54,115.3-120.6,115.3S135.4,319.7,135.4,256S189.4,140.7,256,140.7z"/>
</g>
</svg>
