<?xml version="1.0" encoding="utf-8"?>
<!-- Generator: Adobe Illustrator 19.0.0, SVG Export Plug-In . SVG Version: 6.00 Build 0)  -->
<svg version="1.1" id="Layer_1" xmlns="http://www.w3.org/2000/svg" xmlns:xlink="http://www.w3.org/1999/xlink" x="0px" y="0px"
	 viewBox="0 0 512 512" style="enable-background:new 0 0 512 512;" xml:space="preserve">
<g id="XMLID_1_">
	<path id="XMLID_3_" d="M185.9,302.1c51.2,0,92.9-41.7,92.9-92.9s-41.7-92.9-92.9-92.9s-92.9,41.7-92.9,92.9
		S134.7,302.1,185.9,302.1z"/>
	<path id="XMLID_4_" d="M185.9,325.7C76.4,325.7,0,383.2,0,465.1v23.6h372.6v-23.6C372.6,383.2,296.2,325.7,185.9,325.7z"/>
	<polygon id="XMLID_5_" points="512,92.6 441.9,92.6 441.9,23.2 395.4,23.2 395.4,92.6 326.1,92.6 326.1,139 395.4,139 395.4,209.1 
		441.9,209.1 441.9,139 512,139 	"/>
</g>
</svg>
